<svg width="50" height="50" viewBox="0 0 50 50" fill="none" xmlns="http://www.w3.org/2000/svg">
<g clip-path="url(#clip0_187_31)">
<path d="M25 50C38.8071 50 50 38.8071 50 25C50 11.1929 38.8071 0 25 0C11.1929 0 0 11.1929 0 25C0 38.8071 11.1929 50 25 50Z" fill="black"/>
<path d="M41.5301 43.7555L19.2059 15H15V34.9918H18.3648V19.273L38.8883 45.7902C39.813 45.1713 40.6956 44.4916 41.5301 43.7555Z" fill="url(#paint0_linear_187_31)"/>
<path d="M31.9453 15H35.2785V35H31.9453V15Z" fill="url(#paint1_linear_187_31)"/>
</g>
<defs>
<linearGradient id="paint0_linear_187_31" x1="30.2777" y1="32.3611" x2="40.1388" y2="44.5833" gradientUnits="userSpaceOnUse">
<stop stop-color="white"/>
<stop offset="1" stop-color="white" stop-opacity="0"/>
</linearGradient>
<linearGradient id="paint1_linear_187_31" x1="33.6118" y1="15" x2="33.556" y2="29.6875" gradientUnits="userSpaceOnUse">
<stop stop-color="white"/>
<stop offset="1" stop-color="white" stop-opacity="0"/>
</linearGradient>
<clipPath id="clip0_187_31">
<rect width="50" height="50" fill="white"/>
</clipPath>
</defs>
</svg>
